<?xml version="1.0" encoding="utf-8"?>
<!-- Generator: Adobe Illustrator 18.1.1, SVG Export Plug-In . SVG Version: 6.00 Build 0)  -->
<svg version="1.1" id="Layer_1" xmlns="http://www.w3.org/2000/svg" xmlns:xlink="http://www.w3.org/1999/xlink" x="0px" y="0px"
	 viewBox="0 0 32 32" enable-background="new 0 0 32 32" xml:space="preserve">
<path d="M32,27c0,2.8-2.2,5-5,5s-5-2.2-5-5c0-0.1,0-0.2,0-0.3L8.2,19.8C7.3,20.5,6.2,21,5,21c-2.8,0-5-2.2-5-5s2.2-5,5-5
	c1.2,0,2.3,0.5,3.2,1.2L22,5.3c0-0.1,0-0.2,0-0.3c0-2.8,2.2-5,5-5s5,2.2,5,5s-2.2,5-5,5c-1.2,0-2.3-0.5-3.2-1.2L10,15.7
	c0,0.1,0,0.2,0,0.3s0,0.2,0,0.3l13.8,6.9c0.9-0.7,2-1.2,3.2-1.2C29.8,22,32,24.2,32,27z"/>
</svg>
